<svg width="791" height="112" viewBox="0 0 791 112" fill="none" xmlns="http://www.w3.org/2000/svg">
<path d="M0.800001 105.6V38.4C0.800001 36.5867 1.38667 35.0933 2.56 33.92C3.84 32.64 5.38667 32 7.2 32C9.01333 32 10.5067 32.64 11.68 33.92C12.96 35.0933 13.6 36.5867 13.6 38.4V42.72C21.0667 35.5733 30.1333 32 40.8 32C42.6133 32 44.1067 32.64 45.28 33.92C46.56 35.0933 47.2 36.5867 47.2 38.4C47.2 40.2133 46.56 41.76 45.28 43.04C44.1067 44.2133 42.6133 44.8 40.8 44.8C33.3333 44.8 26.9333 47.4667 21.6 52.8C16.2667 58.1333 13.6 64.5333 13.6 72V105.6C13.6 107.413 12.96 108.96 11.68 110.24C10.5067 111.413 9.01333 112 7.2 112C5.38667 112 3.84 111.413 2.56 110.24C1.38667 108.96 0.800001 107.413 0.800001 105.6ZM127.213 78.4H67.2125C68.7058 84.48 71.8525 89.4933 76.6525 93.44C81.5592 97.28 87.2125 99.2 93.6125 99.2C101.079 99.2 107.479 96.5333 112.813 91.2C114.093 90.0267 115.586 89.44 117.293 89.44C119.106 89.44 120.653 90.0267 121.933 91.2C123.106 92.48 123.693 94.0267 123.693 95.84C123.693 97.5467 123.106 99.04 121.933 100.32C113.826 108.107 104.386 112 93.6125 112C82.5192 112 73.0792 108.107 65.2925 100.32C57.5058 92.5333 53.6125 83.0933 53.6125 72C53.6125 60.9067 57.5058 51.4667 65.2925 43.68C73.0792 35.8933 82.5192 32 93.6125 32C104.706 32 114.146 35.8933 121.933 43.68C129.719 51.4667 133.613 60.9067 133.613 72C133.613 73.8133 132.973 75.36 131.693 76.64C130.519 77.8133 129.026 78.4 127.213 78.4ZM67.2125 65.6H120.013C118.519 59.52 115.319 54.56 110.413 50.72C105.506 46.7733 99.9058 44.8 93.6125 44.8C87.2125 44.8 81.5592 46.7733 76.6525 50.72C71.8525 54.56 68.7058 59.52 67.2125 65.6ZM187.225 112H152.825C151.012 112 149.465 111.413 148.185 110.24C147.012 108.96 146.425 107.413 146.425 105.6C146.425 103.787 147.012 102.293 148.185 101.12C149.465 99.84 151.012 99.2 152.825 99.2H187.225C190.105 99.2 192.558 98.1867 194.585 96.16C196.612 94.1333 197.625 91.68 197.625 88.8C197.625 85.92 196.612 83.4667 194.585 81.44C192.558 79.4133 190.105 78.4 187.225 78.4H169.625C163.225 78.4 157.732 76.16 153.145 71.68C148.665 67.0933 146.425 61.6 146.425 55.2C146.425 48.8 148.665 43.36 153.145 38.88C157.732 34.2933 163.225 32 169.625 32H194.585C196.398 32 197.892 32.64 199.065 33.92C200.345 35.0933 200.985 36.5867 200.985 38.4C200.985 40.2133 200.345 41.76 199.065 43.04C197.892 44.2133 196.398 44.8 194.585 44.8H169.625C166.745 44.8 164.292 45.8133 162.265 47.84C160.238 49.8667 159.225 52.32 159.225 55.2C159.225 58.08 160.238 60.5333 162.265 62.56C164.292 64.5867 166.745 65.6 169.625 65.6H187.225C193.625 65.6 199.065 67.8933 203.545 72.48C208.132 76.96 210.425 82.4 210.425 88.8C210.425 95.2 208.132 100.693 203.545 105.28C199.065 109.76 193.625 112 187.225 112ZM292.063 105.6V101.28C284.596 108.427 275.529 112 264.863 112C253.769 112 244.329 108.107 236.543 100.32C228.756 92.5333 224.863 83.0933 224.863 72V38.4C224.863 36.5867 225.449 35.0933 226.622 33.92C227.903 32.64 229.449 32 231.263 32C233.076 32 234.569 32.64 235.743 33.92C237.023 35.0933 237.663 36.5867 237.663 38.4V72C237.663 79.4667 240.329 85.8667 245.663 91.2C250.996 96.5333 257.396 99.2 264.863 99.2C272.329 99.2 278.729 96.5333 284.063 91.2C289.396 85.8667 292.063 79.4667 292.063 72V38.4C292.063 36.5867 292.649 35.0933 293.823 33.92C295.103 32.64 296.649 32 298.463 32C300.276 32 301.769 32.64 302.943 33.92C304.223 35.0933 304.863 36.5867 304.863 38.4V105.6C304.863 107.413 304.223 108.96 302.943 110.24C301.769 111.413 300.276 112 298.463 112C296.649 112 295.103 111.413 293.823 110.24C292.649 108.96 292.063 107.413 292.063 105.6ZM437.719 105.6V67.2C437.719 61.0133 435.532 55.7333 431.159 51.36C426.785 46.9867 421.505 44.8 415.319 44.8C409.132 44.8 403.852 46.9867 399.479 51.36C395.105 55.7333 392.919 61.0133 392.919 67.2V105.6C392.919 107.413 392.279 108.96 390.999 110.24C389.825 111.413 388.332 112 386.519 112C384.705 112 383.159 111.413 381.879 110.24C380.705 108.96 380.119 107.413 380.119 105.6V67.2C380.119 61.0133 377.932 55.7333 373.559 51.36C369.185 46.9867 363.905 44.8 357.719 44.8C351.532 44.8 346.252 46.9867 341.879 51.36C337.505 55.7333 335.319 61.0133 335.319 67.2V105.6C335.319 107.413 334.679 108.96 333.399 110.24C332.225 111.413 330.732 112 328.919 112C327.105 112 325.559 111.413 324.279 110.24C323.105 108.96 322.519 107.413 322.519 105.6V38.4C322.519 36.5867 323.105 35.0933 324.279 33.92C325.559 32.64 327.105 32 328.919 32C330.732 32 332.225 32.64 333.399 33.92C334.679 35.0933 335.319 36.5867 335.319 38.4V40C342.039 34.6667 349.505 32 357.719 32C363.585 32 369.025 33.3333 374.039 36C379.052 38.6667 383.212 42.3467 386.519 47.04C389.825 42.3467 393.985 38.6667 398.999 36C404.012 33.3333 409.452 32 415.319 32C424.919 32 433.185 35.4667 440.119 42.4C447.052 49.3333 450.519 57.6 450.519 67.2V105.6C450.519 107.413 449.879 108.96 448.599 110.24C447.425 111.413 445.932 112 444.119 112C442.305 112 440.759 111.413 439.479 110.24C438.305 108.96 437.719 107.413 437.719 105.6ZM538.619 78.4H478.619C480.112 84.48 483.259 89.4933 488.059 93.44C492.965 97.28 498.619 99.2 505.019 99.2C512.485 99.2 518.885 96.5333 524.219 91.2C525.499 90.0267 526.992 89.44 528.699 89.44C530.512 89.44 532.059 90.0267 533.339 91.2C534.512 92.48 535.099 94.0267 535.099 95.84C535.099 97.5467 534.512 99.04 533.339 100.32C525.232 108.107 515.792 112 505.019 112C493.925 112 484.485 108.107 476.699 100.32C468.912 92.5333 465.019 83.0933 465.019 72C465.019 60.9067 468.912 51.4667 476.699 43.68C484.485 35.8933 493.925 32 505.019 32C516.112 32 525.552 35.8933 533.339 43.68C541.125 51.4667 545.019 60.9067 545.019 72C545.019 73.8133 544.379 75.36 543.099 76.64C541.925 77.8133 540.432 78.4 538.619 78.4ZM478.619 65.6H531.419C529.925 59.52 526.725 54.56 521.819 50.72C516.912 46.7733 511.312 44.8 505.019 44.8C498.619 44.8 492.965 46.7733 488.059 50.72C483.259 54.56 480.112 59.52 478.619 65.6ZM559.55 105.6V38.4C559.55 36.5867 560.137 35.0933 561.31 33.92C562.59 32.64 564.137 32 565.95 32C567.763 32 569.257 32.64 570.43 33.92C571.71 35.0933 572.35 36.5867 572.35 38.4V42.72C579.817 35.5733 588.883 32 599.55 32C601.363 32 602.857 32.64 604.03 33.92C605.31 35.0933 605.95 36.5867 605.95 38.4C605.95 40.2133 605.31 41.76 604.03 43.04C602.857 44.2133 601.363 44.8 599.55 44.8C592.083 44.8 585.683 47.4667 580.35 52.8C575.017 58.1333 572.35 64.5333 572.35 72V105.6C572.35 107.413 571.71 108.96 570.43 110.24C569.257 111.413 567.763 112 565.95 112C564.137 112 562.59 111.413 561.31 110.24C560.137 108.96 559.55 107.413 559.55 105.6ZM634.37 2.07999C635.757 3.46666 636.45 5.17333 636.45 7.2C636.45 9.22666 635.757 10.9333 634.37 12.32C632.983 13.7067 631.277 14.4 629.25 14.4C627.223 14.4 625.517 13.7067 624.13 12.32C622.743 10.9333 622.05 9.22666 622.05 7.2C622.05 5.17333 622.743 3.46666 624.13 2.07999C625.517 0.693326 627.223 -7.62939e-06 629.25 -7.62939e-06C631.277 -7.62939e-06 632.983 0.693326 634.37 2.07999ZM622.85 105.6V38.4C622.85 36.5867 623.437 35.0933 624.61 33.92C625.89 32.64 627.437 32 629.25 32C631.063 32 632.557 32.64 633.73 33.92C635.01 35.0933 635.65 36.5867 635.65 38.4V105.6C635.65 107.413 635.01 108.96 633.73 110.24C632.557 111.413 631.063 112 629.25 112C627.437 112 625.89 111.413 624.61 110.24C623.437 108.96 622.85 107.413 622.85 105.6ZM666.881 44.8V88C666.881 91.0933 667.948 93.76 670.081 96C672.321 98.1333 674.988 99.2 678.081 99.2C681.175 99.2 683.841 98.08 686.081 95.84C687.255 94.6667 688.695 94.08 690.401 94.08C692.215 94.08 693.761 94.6667 695.041 95.84C696.321 97.12 696.961 98.6667 696.961 100.48C696.961 102.187 696.321 103.68 695.041 104.96C690.348 109.653 684.695 112 678.081 112C671.468 112 665.815 109.653 661.121 104.96C656.428 100.267 654.081 94.6133 654.081 88V6.4C654.081 4.58666 654.668 3.09333 655.841 1.92C657.121 0.639994 658.668 -7.62939e-06 660.481 -7.62939e-06C662.295 -7.62939e-06 663.788 0.639994 664.961 1.92C666.241 3.09333 666.881 4.58666 666.881 6.4V32H684.481C686.295 32 687.788 32.64 688.961 33.92C690.241 35.0933 690.881 36.5867 690.881 38.4C690.881 40.2133 690.241 41.76 688.961 43.04C687.788 44.2133 686.295 44.8 684.481 44.8H666.881ZM784.088 78.4H724.088C725.581 84.48 728.728 89.4933 733.528 93.44C738.434 97.28 744.088 99.2 750.488 99.2C757.954 99.2 764.354 96.5333 769.688 91.2C770.968 90.0267 772.461 89.44 774.168 89.44C775.981 89.44 777.528 90.0267 778.808 91.2C779.981 92.48 780.568 94.0267 780.568 95.84C780.568 97.5467 779.981 99.04 778.808 100.32C770.701 108.107 761.261 112 750.488 112C739.394 112 729.954 108.107 722.168 100.32C714.381 92.5333 710.488 83.0933 710.488 72C710.488 60.9067 714.381 51.4667 722.168 43.68C729.954 35.8933 739.394 32 750.488 32C761.581 32 771.021 35.8933 778.808 43.68C786.594 51.4667 790.488 60.9067 790.488 72C790.488 73.8133 789.848 75.36 788.568 76.64C787.394 77.8133 785.901 78.4 784.088 78.4ZM724.088 65.6H776.888C775.394 59.52 772.194 54.56 767.288 50.72C762.381 46.7733 756.781 44.8 750.488 44.8C744.088 44.8 738.434 46.7733 733.528 50.72C728.728 54.56 725.581 59.52 724.088 65.6Z" fill="black"/>
</svg>
